<?xml version="1.0" encoding="UTF-8" standalone="no"?>
<!DOCTYPE svg PUBLIC "-//W3C//DTD SVG 1.1//EN" "http://www.w3.org/Graphics/SVG/1.1/DTD/svg11.dtd">
<svg xmlns="http://www.w3.org/2000/svg" version="1.1" viewBox="0.00 0.00 500.00 500.00">
<g stroke-width="2.00" fill="none" stroke-linecap="butt">
<path stroke="#b3b5ab" vector-effect="non-scaling-stroke" d="
  M 299.17 143.29
  C 276.98 125.56 247.35 120.26 220.36 129.13
  A 0.02 0.01 -46.6 0 0 220.36 129.16
  Q 247.46 130.92 268.83 146.01
  Q 269.23 146.30 269.72 146.20
  Q 284.20 143.31 298.98 143.80
  Q 299.85 143.83 299.17 143.29"
/>
<path stroke="#b0a89f" vector-effect="non-scaling-stroke" d="
  M 255.84 145.89
  C 234.50 135.84 207.34 132.54 185.24 142.53
  Q 160.37 153.76 146.12 177.59
  Q 145.85 178.03 146.34 177.85
  C 155.07 174.61 162.48 169.47 170.02 164.11
  C 189.17 150.46 209.96 146.76 233.07 153.68
  Q 240.24 155.83 245.63 158.95
  Q 246.06 159.21 246.45 158.89
  Q 252.94 153.51 260.39 149.56
  Q 260.97 149.25 260.46 148.84
  Q 258.28 147.04 255.84 145.89"
/>
<path stroke="#b3b5ab" vector-effect="non-scaling-stroke" d="
  M 248.71 169.00
  Q 243.83 175.30 241.54 183.03
  A 1.04 1.03 2.8 0 1 240.74 183.75
  L 234.07 184.98
  A 0.73 0.73 0.0 0 1 233.21 184.17
  Q 234.43 173.97 240.74 165.94
  Q 241.13 165.45 240.59 165.11
  C 232.89 160.33 221.30 155.08 212.43 161.19
  C 202.51 168.02 196.15 178.87 187.87 187.29
  C 172.23 203.21 149.87 212.39 129.80 222.54
  Q 128.67 223.12 128.46 223.94
  Q 124.95 238.10 125.27 252.73
  Q 125.29 253.56 125.74 252.87
  C 129.20 247.63 132.85 241.93 137.78 238.46
  C 147.43 231.65 159.32 229.66 170.96 227.34
  C 186.35 224.27 199.28 218.20 207.75 204.36
  Q 208.02 203.92 207.69 203.52
  C 201.30 195.94 203.52 182.55 215.39 182.94
  C 219.12 183.07 223.31 185.14 227.15 186.48
  C 234.34 188.98 242.23 189.93 249.75 191.29
  A 0.58 0.58 0.0 0 0 250.37 190.95
  Q 255.71 178.32 265.98 169.35"
/>
<path stroke="#b0a89f" vector-effect="non-scaling-stroke" d="
  M 265.98 169.35
  C 279.59 158.43 295.47 155.56 312.34 159.80
  C 349.82 169.21 372.70 208.71 369.29 245.76
  C 367.51 265.17 360.66 280.09 352.71 297.50
  A 0.45 0.45 0.0 0 0 353.44 298.00
  C 377.81 272.81 383.41 232.44 369.81 200.88
  C 358.47 174.55 334.81 153.40 306.18 148.61
  C 285.72 145.19 261.45 151.35 248.71 169.00"
/>
<path stroke="#645e4b" vector-effect="non-scaling-stroke" d="
  M 265.98 169.35
  Q 263.66 167.79 260.99 167.50
  C 256.49 167.02 253.36 172.52 248.71 169.00"
/>
<path stroke="#b0a89f" vector-effect="non-scaling-stroke" d="
  M 134.65 195.72
  L 130.67 209.95
  Q 130.54 210.40 130.99 210.26
  Q 153.15 203.33 172.75 193.49
  C 187.95 185.85 195.24 174.28 203.95 159.41
  Q 204.20 158.98 203.71 159.04
  Q 191.97 160.46 183.48 166.24
  C 167.58 177.08 152.87 186.84 135.53 194.70
  A 1.58 1.57 86.0 0 0 134.65 195.72"
/>
<path stroke="#b3b5ab" vector-effect="non-scaling-stroke" d="
  M 263.78 183.92
  Q 260.24 188.19 257.88 193.28
  A 0.60 0.60 0.0 0 0 258.13 194.05
  C 274.22 203.17 292.50 205.35 308.49 214.27
  C 340.21 231.98 333.90 274.13 324.28 301.78
  Q 324.10 302.30 324.64 302.15
  C 329.70 300.75 334.58 291.03 336.62 286.56
  C 342.26 274.22 341.74 259.51 339.32 246.19
  C 335.83 226.97 326.09 212.44 309.61 202.46"
/>
<path stroke="#b0a89f" vector-effect="non-scaling-stroke" d="
  M 309.61 202.46
  L 294.05 193.64
  A 0.43 0.43 0.0 0 1 294.21 192.84
  Q 304.94 191.49 313.82 196.02
  C 337.84 208.29 347.68 237.07 346.17 262.67"
/>
<path stroke="#c9c1b8" vector-effect="non-scaling-stroke" d="
  M 346.17 262.67
  Q 344.21 275.69 341.89 289.03
  Q 341.01 294.09 339.32 298.77
  A 0.23 0.23 0.0 0 0 339.70 299.00
  C 352.66 286.08 364.39 261.20 363.36 242.74
  Q 363.14 238.86 363.07 235.16"
/>
<path stroke="#b0a89f" vector-effect="non-scaling-stroke" d="
  M 363.07 235.16
  Q 362.12 210.32 347.95 191.31
  C 328.31 164.96 286.62 153.99 263.78 183.92"
/>
<path stroke="#7a6a58" vector-effect="non-scaling-stroke" d="
  M 363.07 235.16
  Q 359.55 222.48 358.36 219.18
  Q 351.52 200.31 333.61 190.46
  C 330.31 188.65 325.60 187.15 321.74 185.27
  Q 321.51 185.15 321.32 185.22
  Q 320.87 185.39 321.27 185.66
  C 336.68 196.31 349.66 213.88 351.23 233.00
  Q 352.50 248.46 346.17 262.67"
/>
<path stroke="#645e4b" vector-effect="non-scaling-stroke" d="
  M 309.61 202.46
  C 308.71 203.32 307.70 203.86 306.37 203.54
  Q 297.82 201.45 289.59 198.30
  C 286.18 197.00 283.34 199.61 280.64 197.09
  Q 276.49 193.19 269.68 189.03
  C 267.47 187.68 265.93 185.50 263.78 183.92"
/>
<path stroke="#b3b5ab" vector-effect="non-scaling-stroke" d="
  M 242.60 203.29
  Q 243.76 201.24 244.83 201.89
  Q 251.51 205.93 258.62 209.05
  C 268.96 213.59 283.54 216.56 292.74 220.02
  C 304.97 224.61 315.82 230.83 323.93 241.31
  Q 324.44 241.96 324.95 243.59
  Q 325.13 244.17 325.29 243.67
  Q 325.34 243.49 325.29 243.23
  C 321.82 227.33 310.74 216.74 295.26 212.22
  C 285.14 209.27 275.43 206.43 265.14 202.75
  C 256.53 199.68 246.41 194.85 237.13 195.40"
/>
<path stroke="#c8b7b0" vector-effect="non-scaling-stroke" d="
  M 237.13 195.40
  Q 236.35 194.72 237.77 193.61
  A 0.93 0.92 -52.1 0 0 237.58 192.03
  C 231.62 189.41 215.06 182.35 210.19 189.62
  C 204.05 198.78 226.20 211.08 232.50 214.50
  C 246.60 222.17 259.30 226.09 273.22 231.07
  C 305.84 242.75 308.44 268.23 297.51 297.33
  A 0.52 0.52 0.0 0 0 297.96 298.03
  C 304.17 298.47 305.52 294.39 307.79 288.90
  C 322.34 253.68 297.61 231.16 266.35 223.59
  A 0.16 0.16 0.0 0 1 266.38 223.28
  Q 270.48 223.15 274.54 224.05
  C 299.84 229.61 323.44 248.99 316.46 278.00
  Q 312.46 294.65 302.17 308.40
  Q 301.73 308.99 302.39 309.32
  L 305.90 311.07
  Q 306.37 311.31 306.77 310.95
  C 320.44 298.52 325.51 281.16 323.91 263.06
  C 321.98 241.20 306.41 228.74 287.16 221.84
  C 277.41 218.35 266.03 219.21 257.27 215.46
  Q 248.34 211.63 242.60 203.29"
/>
<path stroke="#7c6d5c" vector-effect="non-scaling-stroke" d="
  M 237.13 195.40
  L 236.54 199.16
  Q 236.46 199.69 236.81 200.10
  Q 239.21 202.89 242.60 203.29"
/>
<path stroke="#b0a89f" vector-effect="non-scaling-stroke" d="
  M 148.87 264.63
  Q 132.94 277.45 132.11 299.51
  Q 132.09 299.95 132.52 300.02
  L 138.73 301.07
  A 0.92 0.91 -83.6 0 0 139.80 300.21
  C 140.28 288.76 143.47 278.52 152.34 270.79"
/>
<path stroke="#c2b0aa" vector-effect="non-scaling-stroke" d="
  M 152.34 270.79
  Q 166.71 260.15 185.20 261.14
  Q 185.59 261.16 185.75 261.47
  A 0.31 0.31 0.0 0 1 185.47 261.92
  C 171.40 261.85 155.59 266.17 147.97 278.56
  C 144.43 284.30 142.76 291.96 141.65 298.93
  A 1.66 1.66 0.0 0 0 143.15 300.85
  L 145.65 301.05
  Q 146.20 301.10 146.29 300.55
  C 147.54 292.29 152.81 276.05 163.19 275.35"
/>
<path stroke="#b3b5ab" vector-effect="non-scaling-stroke" d="
  M 163.19 275.35
  C 168.39 275.99 172.49 276.68 177.66 278.62
  Q 216.48 293.15 255.43 278.42
  Q 266.14 274.37 272.54 262.81"
/>
<path stroke="#c2b0aa" vector-effect="non-scaling-stroke" d="
  M 272.54 262.81
  Q 270.37 249.58 262.97 236.82
  A 0.60 0.60 0.0 0 1 263.20 235.99
  Q 263.27 235.94 263.50 236.04"
/>
<path stroke="#c8b7b0" vector-effect="non-scaling-stroke" d="
  M 263.50 236.04
  C 272.75 243.79 281.04 255.25 274.45 267.68
  C 272.04 272.23 268.00 275.91 266.01 280.47
  A 0.40 0.40 0.0 0 0 266.54 280.99
  C 271.14 278.87 276.42 277.01 279.95 273.84
  C 288.93 265.76 291.63 254.15 284.86 243.57
  A 0.15 0.15 0.0 0 1 284.91 243.36
  Q 285.07 243.27 285.21 243.27
  Q 285.38 243.26 285.54 243.48
  C 291.09 250.55 294.44 261.72 290.30 270.02
  C 286.93 276.77 281.08 278.63 274.48 281.16
  Q 267.29 283.93 267.48 291.67
  Q 267.51 293.06 268.12 293.49
  A 2.63 2.10 46.5 0 0 270.57 293.83
  C 284.83 286.79 301.11 280.78 296.95 261.28
  C 293.47 245.02 280.14 236.56 265.03 232.30"
/>
<path stroke="#c2b0aa" vector-effect="non-scaling-stroke" d="
  M 265.03 232.30
  Q 241.61 225.30 220.03 214.07
  C 217.44 212.72 215.21 210.78 213.02 208.92
  Q 212.64 208.60 212.49 208.12
  L 212.21 207.25
  Q 212.03 206.67 211.68 207.16
  C 206.12 214.86 199.54 222.00 190.65 225.85
  C 178.88 230.95 166.26 232.58 153.86 235.51
  C 140.72 238.62 133.40 244.67 129.26 258.02
  Q 123.15 277.72 127.59 298.00
  A 1.21 1.21 0.0 0 0 129.59 298.64
  Q 129.94 298.33 130.20 297.61
  Q 130.37 297.13 130.39 296.44
  C 131.01 277.01 141.24 259.36 161.02 254.61
  C 173.05 251.72 184.64 251.75 196.50 250.66
  Q 218.02 248.66 231.96 232.87
  A 0.37 0.37 0.0 0 1 232.56 233.30
  C 224.72 246.50 212.55 255.82 196.75 255.48
  C 179.91 255.13 163.89 255.79 148.87 264.63"
/>
<path stroke="#8a675b" vector-effect="non-scaling-stroke" d="
  M 265.03 232.30
  L 263.50 236.04"
/>
<path stroke="#766656" vector-effect="non-scaling-stroke" d="
  M 272.54 262.81
  C 267.66 265.52 264.82 269.99 259.77 272.79
  Q 255.23 275.30 247.70 276.50
  C 229.05 279.47 213.15 278.94 192.65 276.83
  C 187.18 276.27 181.95 274.85 176.57 273.63
  Q 169.43 272.02 163.19 275.35"
/>
<path stroke="#735949" vector-effect="non-scaling-stroke" d="
  M 152.34 270.79
  Q 150.14 268.62 148.87 264.63"
/>
<path stroke="#c2b0aa" vector-effect="non-scaling-stroke" d="
  M 185.14 302.55
  A 0.44 0.43 40.7 0 1 185.97 302.49
  L 191.64 317.04
  A 0.34 0.34 0.0 0 0 192.28 317.04
  L 197.88 302.64
  A 0.48 0.48 0.0 0 1 198.79 302.71
  Q 200.28 309.41 202.05 316.38
  Q 202.23 317.08 203.16 317.02
  A 0.63 0.62 82.1 0 0 203.73 316.26
  L 199.21 295.49
  A 0.28 0.28 0.0 0 0 198.67 295.45
  L 192.35 311.84
  A 0.42 0.42 0.0 0 1 191.56 311.84
  L 185.32 295.41
  A 0.35 0.35 0.0 0 0 184.66 295.46
  L 180.16 316.23
  Q 180.01 316.93 180.73 316.93
  L 181.26 316.93
  Q 181.89 316.93 182.02 316.32
  L 185.14 302.55"
/>
<path stroke="#c2b0aa" vector-effect="non-scaling-stroke" d="
  M 260.36 304.98
  L 262.76 305.01
  A 0.75 0.75 0.0 0 1 263.50 305.76
  L 263.50 315.43
  Q 263.50 315.86 263.64 316.27
  Q 263.91 317.03 264.37 317.02
  Q 265.00 317.01 265.00 316.37
  L 265.00 305.95
  A 1.00 1.00 0.0 0 1 266.25 304.98
  Q 267.79 305.37 268.74 304.23
  A 0.61 0.61 0.0 0 0 268.35 303.23
  L 265.51 302.87
  A 0.59 0.58 3.9 0 1 265.00 302.29
  L 265.00 298.61
  Q 265.00 298.03 264.45 297.85
  L 264.09 297.74
  Q 263.50 297.55 263.50 298.17
  L 263.50 302.26
  Q 263.50 302.86 262.91 302.94
  Q 261.72 303.10 260.59 303.27
  Q 259.45 303.43 259.79 304.55
  A 0.59 0.59 0.0 0 0 260.36 304.98"
/>
<path stroke="#c2b0aa" vector-effect="non-scaling-stroke" d="
  M 212.50 310.91
  C 213.47 317.20 221.28 319.14 225.08 314.04
  A 0.78 0.77 88.8 0 0 223.97 312.97
  C 221.08 315.36 216.47 316.26 214.93 312.06
  Q 214.36 310.50 216.02 310.50
  L 226.01 310.50
  A 0.43 0.43 0.0 0 0 226.44 310.06
  C 226.16 299.56 211.09 301.64 212.50 310.91"
/>
<path stroke="#c2b0aa" vector-effect="non-scaling-stroke" d="
  M 247.28 304.83
  C 246.13 304.25 245.21 303.28 243.94 303.09
  Q 239.37 302.38 237.17 306.46
  C 233.64 313.00 240.81 320.56 247.22 315.25
  A 0.45 0.45 0.0 0 1 247.96 315.58
  Q 247.98 316.95 249.23 317.03
  Q 250.00 317.08 250.00 316.31
  L 250.00 303.76
  A 0.88 0.88 0.0 0 0 248.28 303.50
  L 247.96 304.54
  Q 247.79 305.08 247.28 304.83"
/>
<path stroke="#c2b0aa" vector-effect="non-scaling-stroke" d="
  M 282.55 311.68
  L 278.72 303.69
  A 1.20 1.19 -14.7 0 0 277.55 303.01
  Q 276.54 303.08 276.93 303.93
  Q 279.30 309.06 281.87 314.24
  Q 282.08 314.67 281.88 315.11
  L 277.94 323.91
  Q 277.45 324.99 278.64 325.02
  Q 279.56 325.05 279.86 324.40
  Q 284.54 314.13 288.88 304.12
  A 0.81 0.81 0.0 0 0 288.16 302.98
  Q 287.73 302.97 287.30 303.24
  Q 286.98 303.45 286.82 303.94
  Q 285.44 307.97 283.40 311.70
  A 0.48 0.48 0.0 0 1 282.55 311.68"
/>
<path stroke="#b3b5ab" vector-effect="non-scaling-stroke" d="
  M 326.07 342.89
  C 318.64 340.11 327.99 331.71 335.26 337.50
  A 1.45 1.45 0.0 0 1 335.75 338.19
  L 336.45 340.19
  Q 336.63 340.70 337.18 340.72
  L 343.67 340.90
  A 0.76 0.75 -4.6 0 0 344.43 340.01
  C 342.12 327.73 325.67 325.21 317.88 333.21
  C 314.05 337.14 313.83 344.60 318.97 348.06
  C 323.16 350.87 335.68 352.66 337.22 356.16
  C 339.80 362.01 323.42 365.22 322.03 356.00
  Q 321.96 355.50 321.45 355.50
  L 314.31 355.50
  Q 313.74 355.50 313.80 356.06
  C 315.21 368.82 330.23 371.08 339.76 366.24
  C 347.53 362.30 347.96 351.49 340.73 347.51
  C 337.23 345.57 330.81 344.67 326.07 342.89"
/>
<path stroke="#b3b5ab" vector-effect="non-scaling-stroke" d="
  M 189.00 352.37
  A 0.37 0.37 0.0 0 1 189.37 352.00
  L 201.88 352.00
  A 0.37 0.37 0.0 0 0 202.25 351.63
  L 202.25 345.12
  A 0.37 0.37 0.0 0 0 201.88 344.75
  L 189.39 344.75
  A 0.37 0.37 0.0 0 1 189.02 344.38
  L 188.96 336.87
  A 0.37 0.37 0.0 0 1 189.33 336.50
  L 202.44 336.50
  A 0.37 0.37 0.0 0 0 202.81 336.12
  L 202.73 329.65
  A 0.37 0.37 0.0 0 0 202.36 329.29
  L 181.12 329.15
  A 0.37 0.37 0.0 0 0 180.75 329.52
  L 180.75 367.50
  A 0.37 0.37 0.0 0 0 181.12 367.87
  L 202.56 367.79
  A 0.37 0.37 0.0 0 0 202.93 367.42
  L 202.90 360.87
  A 0.37 0.37 0.0 0 0 202.53 360.50
  L 189.37 360.50
  A 0.37 0.37 0.0 0 1 189.00 360.13
  L 189.00 352.37"
/>
<path stroke="#b3b5ab" vector-effect="non-scaling-stroke" d="
  M 218.77 367.32
  A 0.32 0.32 0.0 0 0 219.05 367.76
  L 227.05 368.09
  A 0.32 0.32 0.0 0 0 227.36 367.88
  L 230.11 360.21
  A 0.32 0.32 0.0 0 1 230.42 360.00
  L 245.01 360.00
  A 0.32 0.32 0.0 0 1 245.31 360.21
  L 248.08 367.84
  A 0.32 0.32 0.0 0 0 248.39 368.05
  L 256.35 367.85
  A 0.32 0.32 0.0 0 0 256.64 367.41
  L 241.35 329.51
  A 0.32 0.32 0.0 0 0 241.06 329.31
  L 234.49 329.13
  A 0.32 0.32 0.0 0 0 234.19 329.33
  L 218.77 367.32"
/>
<path stroke="#b3b5ab" vector-effect="non-scaling-stroke" d="
  M 269.25 335.85
  A 0.65 0.65 0.0 0 0 269.90 336.50
  L 279.85 336.50
  A 0.65 0.65 0.0 0 1 280.50 337.15
  L 280.50 367.39
  A 0.65 0.65 0.0 0 0 281.17 368.04
  L 287.87 367.87
  A 0.65 0.65 0.0 0 0 288.50 367.22
  L 288.50 337.15
  A 0.65 0.65 0.0 0 1 289.15 336.50
  L 298.85 336.50
  A 0.65 0.65 0.0 0 0 299.50 335.85
  L 299.50 329.86
  A 0.65 0.65 0.0 0 0 298.85 329.21
  L 269.90 329.04
  A 0.65 0.65 0.0 0 0 269.25 329.69
  L 269.25 335.85"
/>
<path stroke="#c2b0aa" vector-effect="non-scaling-stroke" d="
  M 214.92 308.96
  L 224.00 309.02
  A 0.19 0.19 0.0 0 0 224.19 308.83
  L 224.19 308.73
  A 4.47 3.71 0.4 0 0 219.74 304.99
  L 219.22 304.99
  A 4.47 3.71 0.4 0 0 214.73 308.67
  L 214.73 308.77
  A 0.19 0.19 0.0 0 0 214.92 308.96"
/>
<path stroke="#c2b0aa" vector-effect="non-scaling-stroke" d="
  M 248.06 310.01
  A 5.01 5.01 0.0 0 0 243.05 305.00
  A 5.01 5.01 0.0 0 0 238.04 310.01
  A 5.01 5.01 0.0 0 0 243.05 315.02
  A 5.01 5.01 0.0 0 0 248.06 310.01"
/>
<path stroke="#b3b5ab" vector-effect="non-scaling-stroke" d="
  M 232.98 352.37
  A 0.49 0.49 0.0 0 0 233.45 353.02
  L 241.96 352.99
  A 0.49 0.49 0.0 0 0 242.42 352.33
  L 238.12 340.29
  A 0.49 0.49 0.0 0 0 237.20 340.29
  L 232.98 352.37"
/>
</g>
<path fill="#ffffff" d="
  M 0.00 0.00
  L 500.00 0.00
  L 500.00 500.00
  L 0.00 500.00
  L 0.00 0.00
  Z
  M 299.17 143.29
  C 276.98 125.56 247.35 120.26 220.36 129.13
  A 0.02 0.01 -46.6 0 0 220.36 129.16
  Q 247.46 130.92 268.83 146.01
  Q 269.23 146.30 269.72 146.20
  Q 284.20 143.31 298.98 143.80
  Q 299.85 143.83 299.17 143.29
  Z
  M 255.84 145.89
  C 234.50 135.84 207.34 132.54 185.24 142.53
  Q 160.37 153.76 146.12 177.59
  Q 145.85 178.03 146.34 177.85
  C 155.07 174.61 162.48 169.47 170.02 164.11
  C 189.17 150.46 209.96 146.76 233.07 153.68
  Q 240.24 155.83 245.63 158.95
  Q 246.06 159.21 246.45 158.89
  Q 252.94 153.51 260.39 149.56
  Q 260.97 149.25 260.46 148.84
  Q 258.28 147.04 255.84 145.89
  Z
  M 248.71 169.00
  Q 243.83 175.30 241.54 183.03
  A 1.04 1.03 2.8 0 1 240.74 183.75
  L 234.07 184.98
  A 0.73 0.73 0.0 0 1 233.21 184.17
  Q 234.43 173.97 240.74 165.94
  Q 241.13 165.45 240.59 165.11
  C 232.89 160.33 221.30 155.08 212.43 161.19
  C 202.51 168.02 196.15 178.87 187.87 187.29
  C 172.23 203.21 149.87 212.39 129.80 222.54
  Q 128.67 223.12 128.46 223.94
  Q 124.95 238.10 125.27 252.73
  Q 125.29 253.56 125.74 252.87
  C 129.20 247.63 132.85 241.93 137.78 238.46
  C 147.43 231.65 159.32 229.66 170.96 227.34
  C 186.35 224.27 199.28 218.20 207.75 204.36
  Q 208.02 203.92 207.69 203.52
  C 201.30 195.94 203.52 182.55 215.39 182.94
  C 219.12 183.07 223.31 185.14 227.15 186.48
  C 234.34 188.98 242.23 189.93 249.75 191.29
  A 0.58 0.58 0.0 0 0 250.37 190.95
  Q 255.71 178.32 265.98 169.35
  C 279.59 158.43 295.47 155.56 312.34 159.80
  C 349.82 169.21 372.70 208.71 369.29 245.76
  C 367.51 265.17 360.66 280.09 352.71 297.50
  A 0.45 0.45 0.0 0 0 353.44 298.00
  C 377.81 272.81 383.41 232.44 369.81 200.88
  C 358.47 174.55 334.81 153.40 306.18 148.61
  C 285.72 145.19 261.45 151.35 248.71 169.00
  Z
  M 134.65 195.72
  L 130.67 209.95
  Q 130.54 210.40 130.99 210.26
  Q 153.15 203.33 172.75 193.49
  C 187.95 185.85 195.24 174.28 203.95 159.41
  Q 204.20 158.98 203.71 159.04
  Q 191.97 160.46 183.48 166.24
  C 167.58 177.08 152.87 186.84 135.53 194.70
  A 1.58 1.57 86.0 0 0 134.65 195.72
  Z
  M 263.78 183.92
  Q 260.24 188.19 257.88 193.28
  A 0.60 0.60 0.0 0 0 258.13 194.05
  C 274.22 203.17 292.50 205.35 308.49 214.27
  C 340.21 231.98 333.90 274.13 324.28 301.78
  Q 324.10 302.30 324.64 302.15
  C 329.70 300.75 334.58 291.03 336.62 286.56
  C 342.26 274.22 341.74 259.51 339.32 246.19
  C 335.83 226.97 326.09 212.44 309.61 202.46
  L 294.05 193.64
  A 0.43 0.43 0.0 0 1 294.21 192.84
  Q 304.94 191.49 313.82 196.02
  C 337.84 208.29 347.68 237.07 346.17 262.67
  Q 344.21 275.69 341.89 289.03
  Q 341.01 294.09 339.32 298.77
  A 0.23 0.23 0.0 0 0 339.70 299.00
  C 352.66 286.08 364.39 261.20 363.36 242.74
  Q 363.14 238.86 363.07 235.16
  Q 362.12 210.32 347.95 191.31
  C 328.31 164.96 286.62 153.99 263.78 183.92
  Z
  M 242.60 203.29
  Q 243.76 201.24 244.83 201.89
  Q 251.51 205.93 258.62 209.05
  C 268.96 213.59 283.54 216.56 292.74 220.02
  C 304.97 224.61 315.82 230.83 323.93 241.31
  Q 324.44 241.96 324.95 243.59
  Q 325.13 244.17 325.29 243.67
  Q 325.34 243.49 325.29 243.23
  C 321.82 227.33 310.74 216.74 295.26 212.22
  C 285.14 209.27 275.43 206.43 265.14 202.75
  C 256.53 199.68 246.41 194.85 237.13 195.40
  Q 236.35 194.72 237.77 193.61
  A 0.93 0.92 -52.1 0 0 237.58 192.03
  C 231.62 189.41 215.06 182.35 210.19 189.62
  C 204.05 198.78 226.20 211.08 232.50 214.50
  C 246.60 222.17 259.30 226.09 273.22 231.07
  C 305.84 242.75 308.44 268.23 297.51 297.33
  A 0.52 0.52 0.0 0 0 297.96 298.03
  C 304.17 298.47 305.52 294.39 307.79 288.90
  C 322.34 253.68 297.61 231.16 266.35 223.59
  A 0.16 0.16 0.0 0 1 266.38 223.28
  Q 270.48 223.15 274.54 224.05
  C 299.84 229.61 323.44 248.99 316.46 278.00
  Q 312.46 294.65 302.17 308.40
  Q 301.73 308.99 302.39 309.32
  L 305.90 311.07
  Q 306.37 311.31 306.77 310.95
  C 320.44 298.52 325.51 281.16 323.91 263.06
  C 321.98 241.20 306.41 228.74 287.16 221.84
  C 277.41 218.35 266.03 219.21 257.27 215.46
  Q 248.34 211.63 242.60 203.29
  Z
  M 148.87 264.63
  Q 132.94 277.45 132.11 299.51
  Q 132.09 299.95 132.52 300.02
  L 138.73 301.07
  A 0.92 0.91 -83.6 0 0 139.80 300.21
  C 140.28 288.76 143.47 278.52 152.34 270.79
  Q 166.71 260.15 185.20 261.14
  Q 185.59 261.16 185.75 261.47
  A 0.31 0.31 0.0 0 1 185.47 261.92
  C 171.40 261.85 155.59 266.17 147.97 278.56
  C 144.43 284.30 142.76 291.96 141.65 298.93
  A 1.66 1.66 0.0 0 0 143.15 300.85
  L 145.65 301.05
  Q 146.20 301.10 146.29 300.55
  C 147.54 292.29 152.81 276.05 163.19 275.35
  C 168.39 275.99 172.49 276.68 177.66 278.62
  Q 216.48 293.15 255.43 278.42
  Q 266.14 274.37 272.54 262.81
  Q 270.37 249.58 262.97 236.82
  A 0.60 0.60 0.0 0 1 263.20 235.99
  Q 263.27 235.94 263.50 236.04
  C 272.75 243.79 281.04 255.25 274.45 267.68
  C 272.04 272.23 268.00 275.91 266.01 280.47
  A 0.40 0.40 0.0 0 0 266.54 280.99
  C 271.14 278.87 276.42 277.01 279.95 273.84
  C 288.93 265.76 291.63 254.15 284.86 243.57
  A 0.15 0.15 0.0 0 1 284.91 243.36
  Q 285.07 243.27 285.21 243.27
  Q 285.38 243.26 285.54 243.48
  C 291.09 250.55 294.44 261.72 290.30 270.02
  C 286.93 276.77 281.08 278.63 274.48 281.16
  Q 267.29 283.93 267.48 291.67
  Q 267.51 293.06 268.12 293.49
  A 2.63 2.10 46.5 0 0 270.57 293.83
  C 284.83 286.79 301.11 280.78 296.95 261.28
  C 293.47 245.02 280.14 236.56 265.03 232.30
  Q 241.61 225.30 220.03 214.07
  C 217.44 212.72 215.21 210.78 213.02 208.92
  Q 212.64 208.60 212.49 208.12
  L 212.21 207.25
  Q 212.03 206.67 211.68 207.16
  C 206.12 214.86 199.54 222.00 190.65 225.85
  C 178.88 230.95 166.26 232.58 153.86 235.51
  C 140.72 238.62 133.40 244.67 129.26 258.02
  Q 123.15 277.72 127.59 298.00
  A 1.21 1.21 0.0 0 0 129.59 298.64
  Q 129.94 298.33 130.20 297.61
  Q 130.37 297.13 130.39 296.44
  C 131.01 277.01 141.24 259.36 161.02 254.61
  C 173.05 251.72 184.64 251.75 196.50 250.66
  Q 218.02 248.66 231.96 232.87
  A 0.37 0.37 0.0 0 1 232.56 233.30
  C 224.72 246.50 212.55 255.82 196.75 255.48
  C 179.91 255.13 163.89 255.79 148.87 264.63
  Z
  M 185.14 302.55
  A 0.44 0.43 40.7 0 1 185.97 302.49
  L 191.64 317.04
  A 0.34 0.34 0.0 0 0 192.28 317.04
  L 197.88 302.64
  A 0.48 0.48 0.0 0 1 198.79 302.71
  Q 200.28 309.41 202.05 316.38
  Q 202.23 317.08 203.16 317.02
  A 0.63 0.62 82.1 0 0 203.73 316.26
  L 199.21 295.49
  A 0.28 0.28 0.0 0 0 198.67 295.45
  L 192.35 311.84
  A 0.42 0.42 0.0 0 1 191.56 311.84
  L 185.32 295.41
  A 0.35 0.35 0.0 0 0 184.66 295.46
  L 180.16 316.23
  Q 180.01 316.93 180.73 316.93
  L 181.26 316.93
  Q 181.89 316.93 182.02 316.32
  L 185.14 302.55
  Z
  M 260.36 304.98
  L 262.76 305.01
  A 0.75 0.75 0.0 0 1 263.50 305.76
  L 263.50 315.43
  Q 263.50 315.86 263.64 316.27
  Q 263.91 317.03 264.37 317.02
  Q 265.00 317.01 265.00 316.37
  L 265.00 305.95
  A 1.00 1.00 0.0 0 1 266.25 304.98
  Q 267.79 305.37 268.74 304.23
  A 0.61 0.61 0.0 0 0 268.35 303.23
  L 265.51 302.87
  A 0.59 0.58 3.9 0 1 265.00 302.29
  L 265.00 298.61
  Q 265.00 298.03 264.45 297.85
  L 264.09 297.74
  Q 263.50 297.55 263.50 298.17
  L 263.50 302.26
  Q 263.50 302.86 262.91 302.94
  Q 261.72 303.10 260.59 303.27
  Q 259.45 303.43 259.79 304.55
  A 0.59 0.59 0.0 0 0 260.36 304.98
  Z
  M 212.50 310.91
  C 213.47 317.20 221.28 319.14 225.08 314.04
  A 0.78 0.77 88.8 0 0 223.97 312.97
  C 221.08 315.36 216.47 316.26 214.93 312.06
  Q 214.36 310.50 216.02 310.50
  L 226.01 310.50
  A 0.43 0.43 0.0 0 0 226.44 310.06
  C 226.16 299.56 211.09 301.64 212.50 310.91
  Z
  M 247.28 304.83
  C 246.13 304.25 245.21 303.28 243.94 303.09
  Q 239.37 302.38 237.17 306.46
  C 233.64 313.00 240.81 320.56 247.22 315.25
  A 0.45 0.45 0.0 0 1 247.96 315.58
  Q 247.98 316.95 249.23 317.03
  Q 250.00 317.08 250.00 316.31
  L 250.00 303.76
  A 0.88 0.88 0.0 0 0 248.28 303.50
  L 247.96 304.54
  Q 247.79 305.08 247.28 304.83
  Z
  M 282.55 311.68
  L 278.72 303.69
  A 1.20 1.19 -14.7 0 0 277.55 303.01
  Q 276.54 303.08 276.93 303.93
  Q 279.30 309.06 281.87 314.24
  Q 282.08 314.67 281.88 315.11
  L 277.94 323.91
  Q 277.45 324.99 278.64 325.02
  Q 279.56 325.05 279.86 324.40
  Q 284.54 314.13 288.88 304.12
  A 0.81 0.81 0.0 0 0 288.16 302.98
  Q 287.73 302.97 287.30 303.24
  Q 286.98 303.45 286.82 303.94
  Q 285.44 307.97 283.40 311.70
  A 0.48 0.48 0.0 0 1 282.55 311.68
  Z
  M 326.07 342.89
  C 318.64 340.11 327.99 331.71 335.26 337.50
  A 1.45 1.45 0.0 0 1 335.75 338.19
  L 336.45 340.19
  Q 336.63 340.70 337.18 340.72
  L 343.67 340.90
  A 0.76 0.75 -4.6 0 0 344.43 340.01
  C 342.12 327.73 325.67 325.21 317.88 333.21
  C 314.05 337.14 313.83 344.60 318.97 348.06
  C 323.16 350.87 335.68 352.66 337.22 356.16
  C 339.80 362.01 323.42 365.22 322.03 356.00
  Q 321.96 355.50 321.45 355.50
  L 314.31 355.50
  Q 313.74 355.50 313.80 356.06
  C 315.21 368.82 330.23 371.08 339.76 366.24
  C 347.53 362.30 347.96 351.49 340.73 347.51
  C 337.23 345.57 330.81 344.67 326.07 342.89
  Z
  M 189.00 352.37
  A 0.37 0.37 0.0 0 1 189.37 352.00
  L 201.88 352.00
  A 0.37 0.37 0.0 0 0 202.25 351.63
  L 202.25 345.12
  A 0.37 0.37 0.0 0 0 201.88 344.75
  L 189.39 344.75
  A 0.37 0.37 0.0 0 1 189.02 344.38
  L 188.96 336.87
  A 0.37 0.37 0.0 0 1 189.33 336.50
  L 202.44 336.50
  A 0.37 0.37 0.0 0 0 202.81 336.12
  L 202.73 329.65
  A 0.37 0.37 0.0 0 0 202.36 329.29
  L 181.12 329.15
  A 0.37 0.37 0.0 0 0 180.75 329.52
  L 180.75 367.50
  A 0.37 0.37 0.0 0 0 181.12 367.87
  L 202.56 367.79
  A 0.37 0.37 0.0 0 0 202.93 367.42
  L 202.90 360.87
  A 0.37 0.37 0.0 0 0 202.53 360.50
  L 189.37 360.50
  A 0.37 0.37 0.0 0 1 189.00 360.13
  L 189.00 352.37
  Z
  M 218.77 367.32
  A 0.32 0.32 0.0 0 0 219.05 367.76
  L 227.05 368.09
  A 0.32 0.32 0.0 0 0 227.36 367.88
  L 230.11 360.21
  A 0.32 0.32 0.0 0 1 230.42 360.00
  L 245.01 360.00
  A 0.32 0.32 0.0 0 1 245.31 360.21
  L 248.08 367.84
  A 0.32 0.32 0.0 0 0 248.39 368.05
  L 256.35 367.85
  A 0.32 0.32 0.0 0 0 256.64 367.41
  L 241.35 329.51
  A 0.32 0.32 0.0 0 0 241.06 329.31
  L 234.49 329.13
  A 0.32 0.32 0.0 0 0 234.19 329.33
  L 218.77 367.32
  Z
  M 269.25 335.85
  A 0.65 0.65 0.0 0 0 269.90 336.50
  L 279.85 336.50
  A 0.65 0.65 0.0 0 1 280.50 337.15
  L 280.50 367.39
  A 0.65 0.65 0.0 0 0 281.17 368.04
  L 287.87 367.87
  A 0.65 0.65 0.0 0 0 288.50 367.22
  L 288.50 337.15
  A 0.65 0.65 0.0 0 1 289.15 336.50
  L 298.85 336.50
  A 0.65 0.65 0.0 0 0 299.50 335.85
  L 299.50 329.86
  A 0.65 0.65 0.0 0 0 298.85 329.21
  L 269.90 329.04
  A 0.65 0.65 0.0 0 0 269.25 329.69
  L 269.25 335.85
  Z"
/>
<path fill="#676b57" d="
  M 220.36 129.13
  C 247.35 120.26 276.98 125.56 299.17 143.29
  Q 299.85 143.83 298.98 143.80
  Q 284.20 143.31 269.72 146.20
  Q 269.23 146.30 268.83 146.01
  Q 247.46 130.92 220.36 129.16
  A 0.02 0.01 -46.6 0 1 220.36 129.13
  Z"
/>
<path fill="#61513e" d="
  M 255.84 145.89
  Q 258.28 147.04 260.46 148.84
  Q 260.97 149.25 260.39 149.56
  Q 252.94 153.51 246.45 158.89
  Q 246.06 159.21 245.63 158.95
  Q 240.24 155.83 233.07 153.68
  C 209.96 146.76 189.17 150.46 170.02 164.11
  C 162.48 169.47 155.07 174.61 146.34 177.85
  Q 145.85 178.03 146.12 177.59
  Q 160.37 153.76 185.24 142.53
  C 207.34 132.54 234.50 135.84 255.84 145.89
  Z"
/>
<path fill="#61513e" d="
  M 265.98 169.35
  Q 263.66 167.79 260.99 167.50
  C 256.49 167.02 253.36 172.52 248.71 169.00
  C 261.45 151.35 285.72 145.19 306.18 148.61
  C 334.81 153.40 358.47 174.55 369.81 200.88
  C 383.41 232.44 377.81 272.81 353.44 298.00
  A 0.45 0.45 0.0 0 1 352.71 297.50
  C 360.66 280.09 367.51 265.17 369.29 245.76
  C 372.70 208.71 349.82 169.21 312.34 159.80
  C 295.47 155.56 279.59 158.43 265.98 169.35
  Z"
/>
<path fill="#676b57" d="
  M 248.71 169.00
  C 253.36 172.52 256.49 167.02 260.99 167.50
  Q 263.66 167.79 265.98 169.35
  Q 255.71 178.32 250.37 190.95
  A 0.58 0.58 0.0 0 1 249.75 191.29
  C 242.23 189.93 234.34 188.98 227.15 186.48
  C 223.31 185.14 219.12 183.07 215.39 182.94
  C 203.52 182.55 201.30 195.94 207.69 203.52
  Q 208.02 203.92 207.75 204.36
  C 199.28 218.20 186.35 224.27 170.96 227.34
  C 159.32 229.66 147.43 231.65 137.78 238.46
  C 132.85 241.93 129.20 247.63 125.74 252.87
  Q 125.29 253.56 125.27 252.73
  Q 124.95 238.10 128.46 223.94
  Q 128.67 223.12 129.80 222.54
  C 149.87 212.39 172.23 203.21 187.87 187.29
  C 196.15 178.87 202.51 168.02 212.43 161.19
  C 221.30 155.08 232.89 160.33 240.59 165.11
  Q 241.13 165.45 240.74 165.94
  Q 234.43 173.97 233.21 184.17
  A 0.73 0.73 0.0 0 0 234.07 184.98
  L 240.74 183.75
  A 1.04 1.03 2.8 0 0 241.54 183.03
  Q 243.83 175.30 248.71 169.00
  Z"
/>
<path fill="#61513e" d="
  M 134.65 195.72
  A 1.58 1.57 86.0 0 1 135.53 194.70
  C 152.87 186.84 167.58 177.08 183.48 166.24
  Q 191.97 160.46 203.71 159.04
  Q 204.20 158.98 203.95 159.41
  C 195.24 174.28 187.95 185.85 172.75 193.49
  Q 153.15 203.33 130.99 210.26
  Q 130.54 210.40 130.67 209.95
  L 134.65 195.72
  Z"
/>
<path fill="#61513e" d="
  M 363.07 235.16
  Q 359.55 222.48 358.36 219.18
  Q 351.52 200.31 333.61 190.46
  C 330.31 188.65 325.60 187.15 321.74 185.27
  Q 321.51 185.15 321.32 185.22
  Q 320.87 185.39 321.27 185.66
  C 336.68 196.31 349.66 213.88 351.23 233.00
  Q 352.50 248.46 346.17 262.67
  C 347.68 237.07 337.84 208.29 313.82 196.02
  Q 304.94 191.49 294.21 192.84
  A 0.43 0.43 0.0 0 0 294.05 193.64
  L 309.61 202.46
  C 308.71 203.32 307.70 203.86 306.37 203.54
  Q 297.82 201.45 289.59 198.30
  C 286.18 197.00 283.34 199.61 280.64 197.09
  Q 276.49 193.19 269.68 189.03
  C 267.47 187.68 265.93 185.50 263.78 183.92
  C 286.62 153.99 328.31 164.96 347.95 191.31
  Q 362.12 210.32 363.07 235.16
  Z"
/>
<path fill="#676b57" d="
  M 263.78 183.92
  C 265.93 185.50 267.47 187.68 269.68 189.03
  Q 276.49 193.19 280.64 197.09
  C 283.34 199.61 286.18 197.00 289.59 198.30
  Q 297.82 201.45 306.37 203.54
  C 307.70 203.86 308.71 203.32 309.61 202.46
  C 326.09 212.44 335.83 226.97 339.32 246.19
  C 341.74 259.51 342.26 274.22 336.62 286.56
  C 334.58 291.03 329.70 300.75 324.64 302.15
  Q 324.10 302.30 324.28 301.78
  C 333.90 274.13 340.21 231.98 308.49 214.27
  C 292.50 205.35 274.22 203.17 258.13 194.05
  A 0.60 0.60 0.0 0 1 257.88 193.28
  Q 260.24 188.19 263.78 183.92
  Z"
/>
<path fill="#938371" d="
  M 363.07 235.16
  Q 363.14 238.86 363.36 242.74
  C 364.39 261.20 352.66 286.08 339.70 299.00
  A 0.23 0.23 0.0 0 1 339.32 298.77
  Q 341.01 294.09 341.89 289.03
  Q 344.21 275.69 346.17 262.67
  Q 352.50 248.46 351.23 233.00
  C 349.66 213.88 336.68 196.31 321.27 185.66
  Q 320.87 185.39 321.32 185.22
  Q 321.51 185.15 321.74 185.27
  C 325.60 187.15 330.31 188.65 333.61 190.46
  Q 351.52 200.31 358.36 219.18
  Q 359.55 222.48 363.07 235.16
  Z"
/>
<path fill="#906e61" d="
  M 237.13 195.40
  L 236.54 199.16
  Q 236.46 199.69 236.81 200.10
  Q 239.21 202.89 242.60 203.29
  Q 248.34 211.63 257.27 215.46
  C 266.03 219.21 277.41 218.35 287.16 221.84
  C 306.41 228.74 321.98 241.20 323.91 263.06
  C 325.51 281.16 320.44 298.52 306.77 310.95
  Q 306.37 311.31 305.90 311.07
  L 302.39 309.32
  Q 301.73 308.99 302.17 308.40
  Q 312.46 294.65 316.46 278.00
  C 323.44 248.99 299.84 229.61 274.54 224.05
  Q 270.48 223.15 266.38 223.28
  A 0.16 0.16 0.0 0 0 266.35 223.59
  C 297.61 231.16 322.34 253.68 307.79 288.90
  C 305.52 294.39 304.17 298.47 297.96 298.03
  A 0.52 0.52 0.0 0 1 297.51 297.33
  C 308.44 268.23 305.84 242.75 273.22 231.07
  C 259.30 226.09 246.60 222.17 232.50 214.50
  C 226.20 211.08 204.05 198.78 210.19 189.62
  C 215.06 182.35 231.62 189.41 237.58 192.03
  A 0.93 0.92 -52.1 0 1 237.77 193.61
  Q 236.35 194.72 237.13 195.40
  Z"
/>
<path fill="#676b57" d="
  M 242.60 203.29
  Q 239.21 202.89 236.81 200.10
  Q 236.46 199.69 236.54 199.16
  L 237.13 195.40
  C 246.41 194.85 256.53 199.68 265.14 202.75
  C 275.43 206.43 285.14 209.27 295.26 212.22
  C 310.74 216.74 321.82 227.33 325.29 243.23
  Q 325.34 243.49 325.29 243.67
  Q 325.13 244.17 324.95 243.59
  Q 324.44 241.96 323.93 241.31
  C 315.82 230.83 304.97 224.61 292.74 220.02
  C 283.54 216.56 268.96 213.59 258.62 209.05
  Q 251.51 205.93 244.83 201.89
  Q 243.76 201.24 242.60 203.29
  Z"
/>
<path fill="#846054" d="
  M 265.03 232.30
  L 263.50 236.04
  Q 263.27 235.94 263.20 235.99
  A 0.60 0.60 0.0 0 0 262.97 236.82
  Q 270.37 249.58 272.54 262.81
  C 267.66 265.52 264.82 269.99 259.77 272.79
  Q 255.23 275.30 247.70 276.50
  C 229.05 279.47 213.15 278.94 192.65 276.83
  C 187.18 276.27 181.95 274.85 176.57 273.63
  Q 169.43 272.02 163.19 275.35
  C 152.81 276.05 147.54 292.29 146.29 300.55
  Q 146.20 301.10 145.65 301.05
  L 143.15 300.85
  A 1.66 1.66 0.0 0 1 141.65 298.93
  C 142.76 291.96 144.43 284.30 147.97 278.56
  C 155.59 266.17 171.40 261.85 185.47 261.92
  A 0.31 0.31 0.0 0 0 185.75 261.47
  Q 185.59 261.16 185.20 261.14
  Q 166.71 260.15 152.34 270.79
  Q 150.14 268.62 148.87 264.63
  C 163.89 255.79 179.91 255.13 196.75 255.48
  C 212.55 255.82 224.72 246.50 232.56 233.30
  A 0.37 0.37 0.0 0 0 231.96 232.87
  Q 218.02 248.66 196.50 250.66
  C 184.64 251.75 173.05 251.72 161.02 254.61
  C 141.24 259.36 131.01 277.01 130.39 296.44
  Q 130.37 297.13 130.20 297.61
  Q 129.94 298.33 129.59 298.64
  A 1.21 1.21 0.0 0 1 127.59 298.00
  Q 123.15 277.72 129.26 258.02
  C 133.40 244.67 140.72 238.62 153.86 235.51
  C 166.26 232.58 178.88 230.95 190.65 225.85
  C 199.54 222.00 206.12 214.86 211.68 207.16
  Q 212.03 206.67 212.21 207.25
  L 212.49 208.12
  Q 212.64 208.60 213.02 208.92
  C 215.21 210.78 217.44 212.72 220.03 214.07
  Q 241.61 225.30 265.03 232.30
  Z"
/>
<path fill="#906e61" d="
  M 265.03 232.30
  C 280.14 236.56 293.47 245.02 296.95 261.28
  C 301.11 280.78 284.83 286.79 270.57 293.83
  A 2.63 2.10 46.5 0 1 268.12 293.49
  Q 267.51 293.06 267.48 291.67
  Q 267.29 283.93 274.48 281.16
  C 281.08 278.63 286.93 276.77 290.30 270.02
  C 294.44 261.72 291.09 250.55 285.54 243.48
  Q 285.38 243.26 285.21 243.27
  Q 285.07 243.27 284.91 243.36
  A 0.15 0.15 0.0 0 0 284.86 243.57
  C 291.63 254.15 288.93 265.76 279.95 273.84
  C 276.42 277.01 271.14 278.87 266.54 280.99
  A 0.40 0.40 0.0 0 1 266.01 280.47
  C 268.00 275.91 272.04 272.23 274.45 267.68
  C 281.04 255.25 272.75 243.79 263.50 236.04
  L 265.03 232.30
  Z"
/>
<path fill="#676b57" d="
  M 272.54 262.81
  Q 266.14 274.37 255.43 278.42
  Q 216.48 293.15 177.66 278.62
  C 172.49 276.68 168.39 275.99 163.19 275.35
  Q 169.43 272.02 176.57 273.63
  C 181.95 274.85 187.18 276.27 192.65 276.83
  C 213.15 278.94 229.05 279.47 247.70 276.50
  Q 255.23 275.30 259.77 272.79
  C 264.82 269.99 267.66 265.52 272.54 262.81
  Z"
/>
<path fill="#61513e" d="
  M 148.87 264.63
  Q 150.14 268.62 152.34 270.79
  C 143.47 278.52 140.28 288.76 139.80 300.21
  A 0.92 0.91 -83.6 0 1 138.73 301.07
  L 132.52 300.02
  Q 132.09 299.95 132.11 299.51
  Q 132.94 277.45 148.87 264.63
  Z"
/>
<path fill="#846054" d="
  M 185.14 302.55
  L 182.02 316.32
  Q 181.89 316.93 181.26 316.93
  L 180.73 316.93
  Q 180.01 316.93 180.16 316.23
  L 184.66 295.46
  A 0.35 0.35 0.0 0 1 185.32 295.41
  L 191.56 311.84
  A 0.42 0.42 0.0 0 0 192.35 311.84
  L 198.67 295.45
  A 0.28 0.28 0.0 0 1 199.21 295.49
  L 203.73 316.26
  A 0.63 0.62 82.1 0 1 203.16 317.02
  Q 202.23 317.08 202.05 316.38
  Q 200.28 309.41 198.79 302.71
  A 0.48 0.48 0.0 0 0 197.88 302.64
  L 192.28 317.04
  A 0.34 0.34 0.0 0 1 191.64 317.04
  L 185.97 302.49
  A 0.44 0.43 40.7 0 0 185.14 302.55
  Z"
/>
<path fill="#846054" d="
  M 260.36 304.98
  A 0.59 0.59 0.0 0 1 259.79 304.55
  Q 259.45 303.43 260.59 303.27
  Q 261.72 303.10 262.91 302.94
  Q 263.50 302.86 263.50 302.26
  L 263.50 298.17
  Q 263.50 297.55 264.09 297.74
  L 264.45 297.85
  Q 265.00 298.03 265.00 298.61
  L 265.00 302.29
  A 0.59 0.58 3.9 0 0 265.51 302.87
  L 268.35 303.23
  A 0.61 0.61 0.0 0 1 268.74 304.23
  Q 267.79 305.37 266.25 304.98
  A 1.00 1.00 0.0 0 0 265.00 305.95
  L 265.00 316.37
  Q 265.00 317.01 264.37 317.02
  Q 263.91 317.03 263.64 316.27
  Q 263.50 315.86 263.50 315.43
  L 263.50 305.76
  A 0.75 0.75 0.0 0 0 262.76 305.01
  L 260.36 304.98
  Z"
/>
<path fill="#846054" d="
  M 225.08 314.04
  C 221.28 319.14 213.47 317.20 212.50 310.91
  C 211.09 301.64 226.16 299.56 226.44 310.06
  A 0.43 0.43 0.0 0 1 226.01 310.50
  L 216.02 310.50
  Q 214.36 310.50 214.93 312.06
  C 216.47 316.26 221.08 315.36 223.97 312.97
  A 0.78 0.77 88.8 0 1 225.08 314.04
  Z
  M 214.92 308.96
  L 224.00 309.02
  A 0.19 0.19 0.0 0 0 224.19 308.83
  L 224.19 308.73
  A 4.47 3.71 0.4 0 0 219.74 304.99
  L 219.22 304.99
  A 4.47 3.71 0.4 0 0 214.73 308.67
  L 214.73 308.77
  A 0.19 0.19 0.0 0 0 214.92 308.96
  Z"
/>
<path fill="#846054" d="
  M 247.96 304.54
  L 248.28 303.50
  A 0.88 0.88 0.0 0 1 250.00 303.76
  L 250.00 316.31
  Q 250.00 317.08 249.23 317.03
  Q 247.98 316.95 247.96 315.58
  A 0.45 0.45 0.0 0 0 247.22 315.25
  C 240.81 320.56 233.64 313.00 237.17 306.46
  Q 239.37 302.38 243.94 303.09
  C 245.21 303.28 246.13 304.25 247.28 304.83
  Q 247.79 305.08 247.96 304.54
  Z
  M 248.06 310.01
  A 5.01 5.01 0.0 0 0 243.05 305.00
  A 5.01 5.01 0.0 0 0 238.04 310.01
  A 5.01 5.01 0.0 0 0 243.05 315.02
  A 5.01 5.01 0.0 0 0 248.06 310.01
  Z"
/>
<path fill="#846054" d="
  M 283.40 311.70
  Q 285.44 307.97 286.82 303.94
  Q 286.98 303.45 287.30 303.24
  Q 287.73 302.97 288.16 302.98
  A 0.81 0.81 0.0 0 1 288.88 304.12
  Q 284.54 314.13 279.86 324.40
  Q 279.56 325.05 278.64 325.02
  Q 277.45 324.99 277.94 323.91
  L 281.88 315.11
  Q 282.08 314.67 281.87 314.24
  Q 279.30 309.06 276.93 303.93
  Q 276.54 303.08 277.55 303.01
  A 1.20 1.19 -14.7 0 1 278.72 303.69
  L 282.55 311.68
  A 0.48 0.48 0.0 0 0 283.40 311.70
  Z"
/>
<path fill="#ffffff" d="
  M 214.92 308.96
  A 0.19 0.19 0.0 0 1 214.73 308.77
  L 214.73 308.67
  A 4.47 3.71 0.4 0 1 219.22 304.99
  L 219.74 304.99
  A 4.47 3.71 0.4 0 1 224.19 308.73
  L 224.19 308.83
  A 0.19 0.19 0.0 0 1 224.00 309.02
  L 214.92 308.96
  Z"
/>
<circle fill="#ffffff" cx="243.05" cy="310.01" r="5.01"/>
<path fill="#676b57" d="
  M 335.26 337.50
  C 327.99 331.71 318.64 340.11 326.07 342.89
  C 330.81 344.67 337.23 345.57 340.73 347.51
  C 347.96 351.49 347.53 362.30 339.76 366.24
  C 330.23 371.08 315.21 368.82 313.80 356.06
  Q 313.74 355.50 314.31 355.50
  L 321.45 355.50
  Q 321.96 355.50 322.03 356.00
  C 323.42 365.22 339.80 362.01 337.22 356.16
  C 335.68 352.66 323.16 350.87 318.97 348.06
  C 313.83 344.60 314.05 337.14 317.88 333.21
  C 325.67 325.21 342.12 327.73 344.43 340.01
  A 0.76 0.75 -4.6 0 1 343.67 340.90
  L 337.18 340.72
  Q 336.63 340.70 336.45 340.19
  L 335.75 338.19
  A 1.45 1.45 0.0 0 0 335.26 337.50
  Z"
/>
<path fill="#676b57" d="
  M 189.00 352.37
  L 189.00 360.13
  A 0.37 0.37 0.0 0 0 189.37 360.50
  L 202.53 360.50
  A 0.37 0.37 0.0 0 1 202.90 360.87
  L 202.93 367.42
  A 0.37 0.37 0.0 0 1 202.56 367.79
  L 181.12 367.87
  A 0.37 0.37 0.0 0 1 180.75 367.50
  L 180.75 329.52
  A 0.37 0.37 0.0 0 1 181.12 329.15
  L 202.36 329.29
  A 0.37 0.37 0.0 0 1 202.73 329.65
  L 202.81 336.12
  A 0.37 0.37 0.0 0 1 202.44 336.50
  L 189.33 336.50
  A 0.37 0.37 0.0 0 0 188.96 336.87
  L 189.02 344.38
  A 0.37 0.37 0.0 0 0 189.39 344.75
  L 201.88 344.75
  A 0.37 0.37 0.0 0 1 202.25 345.12
  L 202.25 351.63
  A 0.37 0.37 0.0 0 1 201.88 352.00
  L 189.37 352.00
  A 0.37 0.37 0.0 0 0 189.00 352.37
  Z"
/>
<path fill="#676b57" d="
  M 218.77 367.32
  L 234.19 329.33
  A 0.32 0.32 0.0 0 1 234.49 329.13
  L 241.06 329.31
  A 0.32 0.32 0.0 0 1 241.35 329.51
  L 256.64 367.41
  A 0.32 0.32 0.0 0 1 256.35 367.85
  L 248.39 368.05
  A 0.32 0.32 0.0 0 1 248.08 367.84
  L 245.31 360.21
  A 0.32 0.32 0.0 0 0 245.01 360.00
  L 230.42 360.00
  A 0.32 0.32 0.0 0 0 230.11 360.21
  L 227.36 367.88
  A 0.32 0.32 0.0 0 1 227.05 368.09
  L 219.05 367.76
  A 0.32 0.32 0.0 0 1 218.77 367.32
  Z
  M 232.98 352.37
  A 0.49 0.49 0.0 0 0 233.45 353.02
  L 241.96 352.99
  A 0.49 0.49 0.0 0 0 242.42 352.33
  L 238.12 340.29
  A 0.49 0.49 0.0 0 0 237.20 340.29
  L 232.98 352.37
  Z"
/>
<path fill="#676b57" d="
  M 269.25 335.85
  L 269.25 329.69
  A 0.65 0.65 0.0 0 1 269.90 329.04
  L 298.85 329.21
  A 0.65 0.65 0.0 0 1 299.50 329.86
  L 299.50 335.85
  A 0.65 0.65 0.0 0 1 298.85 336.50
  L 289.15 336.50
  A 0.65 0.65 0.0 0 0 288.50 337.15
  L 288.50 367.22
  A 0.65 0.65 0.0 0 1 287.87 367.87
  L 281.17 368.04
  A 0.65 0.65 0.0 0 1 280.50 367.39
  L 280.50 337.15
  A 0.65 0.65 0.0 0 0 279.85 336.50
  L 269.90 336.50
  A 0.65 0.65 0.0 0 1 269.25 335.85
  Z"
/>
<path fill="#ffffff" d="
  M 232.98 352.37
  L 237.20 340.29
  A 0.49 0.49 0.0 0 1 238.12 340.29
  L 242.42 352.33
  A 0.49 0.49 0.0 0 1 241.96 352.99
  L 233.45 353.02
  A 0.49 0.49 0.0 0 1 232.98 352.37
  Z"
/>
</svg>
