<?xml version="1.0" encoding="UTF-8" standalone="no"?>
<!DOCTYPE svg PUBLIC "-//W3C//DTD SVG 1.1//EN" "http://www.w3.org/Graphics/SVG/1.1/DTD/svg11.dtd">
<svg xmlns="http://www.w3.org/2000/svg" version="1.1" viewBox="0.00 0.00 1024.00 1024.00">
<g stroke-width="2.00" fill="none" stroke-linecap="butt">
<path stroke="#dfe0e2" vector-effect="non-scaling-stroke" d="
  M 6.50 1024.00
  Q 7.12 1008.14 6.45 992.26
  C 6.37 990.22 5.76 987.41 6.28 984.74
  A 0.99 0.99 0.0 0 0 5.34 983.56
  L 0.92 983.37
  A 0.45 0.45 0.0 0 0 0.45 983.80
  L 0.00 994.69"
/>
<path stroke="#7e7f80" vector-effect="non-scaling-stroke" d="
  M 254.34 431.93
  C 258.77 519.27 313.10 579.37 386.89 618.15
  C 433.55 642.68 492.08 642.29 540.01 622.01
  C 551.35 617.22 560.18 610.55 569.78 602.28
  Q 589.63 585.18 608.45 566.95
  C 628.32 547.72 645.59 527.91 657.28 502.78
  Q 680.84 452.14 673.11 397.21
  C 671.34 384.60 669.31 374.37 665.46 362.78
  C 648.35 311.27 610.77 265.33 562.16 241.12
  C 504.16 212.23 435.83 211.08 376.66 238.52
  Q 367.86 242.60 359.08 248.03
  C 318.80 272.96 287.40 307.40 269.45 351.56
  C 258.97 377.37 252.95 404.54 254.34 431.93"
/>
<path stroke="#7e7f80" vector-effect="non-scaling-stroke" d="
  M 596.63 657.62
  C 645.04 706.92 693.63 754.44 750.27 811.64
  C 766.50 828.03 782.71 843.84 808.24 840.74
  C 845.59 836.21 870.64 803.54 861.29 766.29
  C 857.53 751.28 848.17 739.21 837.01 728.24
  Q 786.30 678.34 672.11 563.82
  C 669.53 561.23 666.84 557.94 664.13 555.09
  Q 663.77 554.71 663.47 555.14
  Q 654.24 568.29 644.21 578.70
  Q 617.16 606.76 584.64 637.66
  Q 584.28 638.00 584.45 638.47
  C 587.23 646.11 590.58 651.45 596.63 657.62"
/>
<path stroke="#7e7f80" vector-effect="non-scaling-stroke" d="
  M 397.06 671.94
  C 383.77 663.13 371.95 651.19 360.00 640.51
  Q 350.96 632.44 336.31 622.46
  C 330.04 618.19 314.45 610.79 308.32 617.57
  Q 274.95 654.46 239.99 689.85
  C 224.27 705.76 206.24 724.66 195.18 737.17
  Q 179.22 755.23 180.17 779.06
  C 181.34 808.49 203.92 835.31 233.78 838.91
  C 253.62 841.30 274.14 831.43 287.78 817.27
  Q 329.02 774.43 369.35 730.72
  C 376.06 723.45 384.62 716.22 389.89 708.54
  Q 397.84 696.96 400.55 682.96
  C 401.51 677.99 401.30 674.75 397.06 671.94"
/>
<path stroke="#7e7f80" vector-effect="non-scaling-stroke" d="
  M 342.79 537.56
  C 387.04 583.42 449.54 606.44 512.01 585.14
  C 566.50 566.57 611.17 517.08 627.56 462.75
  C 639.81 422.17 631.37 381.07 611.20 344.52
  C 571.92 273.35 482.21 240.26 406.75 270.50
  Q 343.67 295.77 313.74 356.45
  C 299.35 385.61 292.69 415.83 298.27 448.51
  Q 307.19 500.67 342.79 537.56"
/>
<path stroke="#7e7f80" vector-effect="non-scaling-stroke" d="
  M 376.34 520.67
  C 416.27 558.83 476.04 568.77 524.94 541.21
  Q 571.83 514.78 589.26 462.91
  C 596.00 442.88 597.98 425.38 594.53 405.76
  C 580.21 324.42 498.62 272.52 419.21 301.67
  C 356.43 324.71 317.46 392.64 337.42 458.34
  C 344.91 483.00 357.66 502.81 376.34 520.67"
/>
<path stroke="#7e7f80" vector-effect="non-scaling-stroke" d="
  M 447.45 337.10
  C 422.40 340.71 399.25 356.18 385.77 377.46
  C 360.52 417.35 371.92 465.30 407.78 494.22
  Q 412.03 497.65 421.80 502.71"
/>
<path stroke="#616162" vector-effect="non-scaling-stroke" d="
  M 421.80 502.71
  Q 436.10 511.49 451.28 513.06"
/>
<path stroke="#7e7f80" vector-effect="non-scaling-stroke" d="
  M 451.28 513.06
  Q 465.63 515.75 481.31 512.33
  C 522.95 503.25 551.74 469.13 553.89 426.74"
/>
<path stroke="#616162" vector-effect="non-scaling-stroke" d="
  M 553.89 426.74
  C 554.92 393.10 535.03 361.38 506.09 345.12
  C 489.13 335.60 466.05 334.08 447.45 337.10"
/>
<path stroke="#dfe0e2" vector-effect="non-scaling-stroke" d="
  M 553.89 426.74
  Q 553.45 426.73 553.16 426.93
  Q 552.93 427.10 552.87 427.54
  C 551.65 437.26 550.61 445.86 546.66 455.92
  C 536.18 482.57 512.58 504.15 484.52 510.03
  C 481.66 510.63 478.56 512.32 475.51 512.51
  Q 466.79 513.05 451.28 513.06"
/>
<path stroke="#dfe0e2" vector-effect="non-scaling-stroke" d="
  M 421.80 502.71
  Q 425.21 501.56 429.15 502.26
  C 443.45 504.81 464.25 500.80 477.17 494.15
  C 494.52 485.22 508.04 472.84 515.75 454.98
  Q 522.62 439.10 523.86 424.44
  C 526.52 393.00 509.67 363.17 480.98 349.48
  Q 466.48 342.57 450.73 339.59
  Q 449.11 339.29 447.45 337.10"
/>
<path stroke="#7e7f80" vector-effect="non-scaling-stroke" d="
  M 350.84 686.43
  L 325.81 662.92
  Q 325.45 662.59 325.18 663.00
  C 319.76 671.28 312.07 678.56 303.81 687.06
  Q 268.45 723.45 233.01 759.76
  C 224.99 767.98 217.70 781.38 227.72 790.52
  C 240.24 801.93 252.36 793.50 261.49 783.49
  Q 293.31 748.64 338.55 700.80
  Q 344.99 693.99 350.88 687.14
  A 0.53 0.52 42.1 0 0 350.84 686.43"
/>
</g>
<path fill="#fcfdff" d="
  M 0.00 0.00
  L 1024.00 0.00
  L 1024.00 1024.00
  L 6.50 1024.00
  Q 7.12 1008.14 6.45 992.26
  C 6.37 990.22 5.76 987.41 6.28 984.74
  A 0.99 0.99 0.0 0 0 5.34 983.56
  L 0.92 983.37
  A 0.45 0.45 0.0 0 0 0.45 983.80
  L 0.00 994.69
  L 0.00 0.00
  Z
  M 254.34 431.93
  C 258.77 519.27 313.10 579.37 386.89 618.15
  C 433.55 642.68 492.08 642.29 540.01 622.01
  C 551.35 617.22 560.18 610.55 569.78 602.28
  Q 589.63 585.18 608.45 566.95
  C 628.32 547.72 645.59 527.91 657.28 502.78
  Q 680.84 452.14 673.11 397.21
  C 671.34 384.60 669.31 374.37 665.46 362.78
  C 648.35 311.27 610.77 265.33 562.16 241.12
  C 504.16 212.23 435.83 211.08 376.66 238.52
  Q 367.86 242.60 359.08 248.03
  C 318.80 272.96 287.40 307.40 269.45 351.56
  C 258.97 377.37 252.95 404.54 254.34 431.93
  Z
  M 596.63 657.62
  C 645.04 706.92 693.63 754.44 750.27 811.64
  C 766.50 828.03 782.71 843.84 808.24 840.74
  C 845.59 836.21 870.64 803.54 861.29 766.29
  C 857.53 751.28 848.17 739.21 837.01 728.24
  Q 786.30 678.34 672.11 563.82
  C 669.53 561.23 666.84 557.94 664.13 555.09
  Q 663.77 554.71 663.47 555.14
  Q 654.24 568.29 644.21 578.70
  Q 617.16 606.76 584.64 637.66
  Q 584.28 638.00 584.45 638.47
  C 587.23 646.11 590.58 651.45 596.63 657.62
  Z
  M 397.06 671.94
  C 383.77 663.13 371.95 651.19 360.00 640.51
  Q 350.96 632.44 336.31 622.46
  C 330.04 618.19 314.45 610.79 308.32 617.57
  Q 274.95 654.46 239.99 689.85
  C 224.27 705.76 206.24 724.66 195.18 737.17
  Q 179.22 755.23 180.17 779.06
  C 181.34 808.49 203.92 835.31 233.78 838.91
  C 253.62 841.30 274.14 831.43 287.78 817.27
  Q 329.02 774.43 369.35 730.72
  C 376.06 723.45 384.62 716.22 389.89 708.54
  Q 397.84 696.96 400.55 682.96
  C 401.51 677.99 401.30 674.75 397.06 671.94
  Z"
/>
<path fill="#000000" d="
  M 386.89 618.15
  C 313.10 579.37 258.77 519.27 254.34 431.93
  C 252.95 404.54 258.97 377.37 269.45 351.56
  C 287.40 307.40 318.80 272.96 359.08 248.03
  Q 367.86 242.60 376.66 238.52
  C 435.83 211.08 504.16 212.23 562.16 241.12
  C 610.77 265.33 648.35 311.27 665.46 362.78
  C 669.31 374.37 671.34 384.60 673.11 397.21
  Q 680.84 452.14 657.28 502.78
  C 645.59 527.91 628.32 547.72 608.45 566.95
  Q 589.63 585.18 569.78 602.28
  C 560.18 610.55 551.35 617.22 540.01 622.01
  C 492.08 642.29 433.55 642.68 386.89 618.15
  Z
  M 342.79 537.56
  C 387.04 583.42 449.54 606.44 512.01 585.14
  C 566.50 566.57 611.17 517.08 627.56 462.75
  C 639.81 422.17 631.37 381.07 611.20 344.52
  C 571.92 273.35 482.21 240.26 406.75 270.50
  Q 343.67 295.77 313.74 356.45
  C 299.35 385.61 292.69 415.83 298.27 448.51
  Q 307.19 500.67 342.79 537.56
  Z"
/>
<path fill="#fcfdff" d="
  M 342.79 537.56
  Q 307.19 500.67 298.27 448.51
  C 292.69 415.83 299.35 385.61 313.74 356.45
  Q 343.67 295.77 406.75 270.50
  C 482.21 240.26 571.92 273.35 611.20 344.52
  C 631.37 381.07 639.81 422.17 627.56 462.75
  C 611.17 517.08 566.50 566.57 512.01 585.14
  C 449.54 606.44 387.04 583.42 342.79 537.56
  Z
  M 376.34 520.67
  C 416.27 558.83 476.04 568.77 524.94 541.21
  Q 571.83 514.78 589.26 462.91
  C 596.00 442.88 597.98 425.38 594.53 405.76
  C 580.21 324.42 498.62 272.52 419.21 301.67
  C 356.43 324.71 317.46 392.64 337.42 458.34
  C 344.91 483.00 357.66 502.81 376.34 520.67
  Z"
/>
<path fill="#000000" d="
  M 376.34 520.67
  C 357.66 502.81 344.91 483.00 337.42 458.34
  C 317.46 392.64 356.43 324.71 419.21 301.67
  C 498.62 272.52 580.21 324.42 594.53 405.76
  C 597.98 425.38 596.00 442.88 589.26 462.91
  Q 571.83 514.78 524.94 541.21
  C 476.04 568.77 416.27 558.83 376.34 520.67
  Z
  M 447.45 337.10
  C 422.40 340.71 399.25 356.18 385.77 377.46
  C 360.52 417.35 371.92 465.30 407.78 494.22
  Q 412.03 497.65 421.80 502.71
  Q 436.10 511.49 451.28 513.06
  Q 465.63 515.75 481.31 512.33
  C 522.95 503.25 551.74 469.13 553.89 426.74
  C 554.92 393.10 535.03 361.38 506.09 345.12
  C 489.13 335.60 466.05 334.08 447.45 337.10
  Z"
/>
<path fill="#c1c2c4" d="
  M 553.89 426.74
  Q 553.45 426.73 553.16 426.93
  Q 552.93 427.10 552.87 427.54
  C 551.65 437.26 550.61 445.86 546.66 455.92
  C 536.18 482.57 512.58 504.15 484.52 510.03
  C 481.66 510.63 478.56 512.32 475.51 512.51
  Q 466.79 513.05 451.28 513.06
  Q 436.10 511.49 421.80 502.71
  Q 425.21 501.56 429.15 502.26
  C 443.45 504.81 464.25 500.80 477.17 494.15
  C 494.52 485.22 508.04 472.84 515.75 454.98
  Q 522.62 439.10 523.86 424.44
  C 526.52 393.00 509.67 363.17 480.98 349.48
  Q 466.48 342.57 450.73 339.59
  Q 449.11 339.29 447.45 337.10
  C 466.05 334.08 489.13 335.60 506.09 345.12
  C 535.03 361.38 554.92 393.10 553.89 426.74
  Z"
/>
<path fill="#fcfdff" d="
  M 447.45 337.10
  Q 449.11 339.29 450.73 339.59
  Q 466.48 342.57 480.98 349.48
  C 509.67 363.17 526.52 393.00 523.86 424.44
  Q 522.62 439.10 515.75 454.98
  C 508.04 472.84 494.52 485.22 477.17 494.15
  C 464.25 500.80 443.45 504.81 429.15 502.26
  Q 425.21 501.56 421.80 502.71
  Q 412.03 497.65 407.78 494.22
  C 371.92 465.30 360.52 417.35 385.77 377.46
  C 399.25 356.18 422.40 340.71 447.45 337.10
  Z"
/>
<path fill="#fcfdff" d="
  M 553.89 426.74
  C 551.74 469.13 522.95 503.25 481.31 512.33
  Q 465.63 515.75 451.28 513.06
  Q 466.79 513.05 475.51 512.51
  C 478.56 512.32 481.66 510.63 484.52 510.03
  C 512.58 504.15 536.18 482.57 546.66 455.92
  C 550.61 445.86 551.65 437.26 552.87 427.54
  Q 552.93 427.10 553.16 426.93
  Q 553.45 426.73 553.89 426.74
  Z"
/>
<path fill="#000000" d="
  M 750.27 811.64
  C 693.63 754.44 645.04 706.92 596.63 657.62
  C 590.58 651.45 587.23 646.11 584.45 638.47
  Q 584.28 638.00 584.64 637.66
  Q 617.16 606.76 644.21 578.70
  Q 654.24 568.29 663.47 555.14
  Q 663.77 554.71 664.13 555.09
  C 666.84 557.94 669.53 561.23 672.11 563.82
  Q 786.30 678.34 837.01 728.24
  C 848.17 739.21 857.53 751.28 861.29 766.29
  C 870.64 803.54 845.59 836.21 808.24 840.74
  C 782.71 843.84 766.50 828.03 750.27 811.64
  Z"
/>
<path fill="#000000" d="
  M 397.06 671.94
  C 401.30 674.75 401.51 677.99 400.55 682.96
  Q 397.84 696.96 389.89 708.54
  C 384.62 716.22 376.06 723.45 369.35 730.72
  Q 329.02 774.43 287.78 817.27
  C 274.14 831.43 253.62 841.30 233.78 838.91
  C 203.92 835.31 181.34 808.49 180.17 779.06
  Q 179.22 755.23 195.18 737.17
  C 206.24 724.66 224.27 705.76 239.99 689.85
  Q 274.95 654.46 308.32 617.57
  C 314.45 610.79 330.04 618.19 336.31 622.46
  Q 350.96 632.44 360.00 640.51
  C 371.95 651.19 383.77 663.13 397.06 671.94
  Z
  M 350.84 686.43
  L 325.81 662.92
  Q 325.45 662.59 325.18 663.00
  C 319.76 671.28 312.07 678.56 303.81 687.06
  Q 268.45 723.45 233.01 759.76
  C 224.99 767.98 217.70 781.38 227.72 790.52
  C 240.24 801.93 252.36 793.50 261.49 783.49
  Q 293.31 748.64 338.55 700.80
  Q 344.99 693.99 350.88 687.14
  A 0.53 0.52 42.1 0 0 350.84 686.43
  Z"
/>
<path fill="#fcfdff" d="
  M 350.84 686.43
  A 0.53 0.52 42.1 0 1 350.88 687.14
  Q 344.99 693.99 338.55 700.80
  Q 293.31 748.64 261.49 783.49
  C 252.36 793.50 240.24 801.93 227.72 790.52
  C 217.70 781.38 224.99 767.98 233.01 759.76
  Q 268.45 723.45 303.81 687.06
  C 312.07 678.56 319.76 671.28 325.18 663.00
  Q 325.45 662.59 325.81 662.92
  L 350.84 686.43
  Z"
/>
<path fill="#c1c2c4" d="
  M 6.50 1024.00
  L 0.00 1024.00
  L 0.00 994.69
  L 0.45 983.80
  A 0.45 0.45 0.0 0 1 0.92 983.37
  L 5.34 983.56
  A 0.99 0.99 0.0 0 1 6.28 984.74
  C 5.76 987.41 6.37 990.22 6.45 992.26
  Q 7.12 1008.14 6.50 1024.00
  Z"
/>
</svg>
